<?xml version="1.0" standalone="no"?><!DOCTYPE svg PUBLIC "-//W3C//DTD SVG 1.1//EN" "http://www.w3.org/Graphics/SVG/1.1/DTD/svg11.dtd"><svg t="1722823418461" class="icon" viewBox="0 0 1024 1024" version="1.1" xmlns="http://www.w3.org/2000/svg" p-id="1487" xmlns:xlink="http://www.w3.org/1999/xlink" width="200" height="200"><path d="M512 938.666667c-235.52-0.256-426.410667-191.146667-426.666667-426.666667v-8.533333C90.026667 269.013333 283.093333 82.261333 517.546667 85.333333c234.538667 3.157333 422.570667 194.944 421.034666 429.44C937.045333 749.312 746.538667 938.666667 512 938.666667z m0-768a341.333333 341.333333 0 1 0 341.333333 341.333333 341.717333 341.717333 0 0 0-341.333333-341.333333z m-61.866667 554.666666l-60.330666-60.373333 150.826666-150.826667-150.826666-150.826666L450.133333 302.933333l211.2 211.2L450.176 725.333333h-0.042667z" p-id="1488"></path></svg>