<?xml version="1.0" standalone="no"?><!DOCTYPE svg PUBLIC "-//W3C//DTD SVG 1.1//EN" "http://www.w3.org/Graphics/SVG/1.1/DTD/svg11.dtd"><svg t="1722909653069" class="icon" viewBox="0 0 1024 1024" version="1.1" xmlns="http://www.w3.org/2000/svg" p-id="1718" xmlns:xlink="http://www.w3.org/1999/xlink" width="200" height="200"><path d="M511.68 158.592C411.84 71.36 264.192 53.504 149.568 151.424 25.536 257.408 7.488 435.904 105.6 562.112c37.184 47.872 109.888 119.872 179.712 185.728a7899.968 7899.968 0 0 0 175.872 160.512l0.64 0.64c3.264 2.816 7.36 6.4 11.264 9.408a64 64 0 0 0 20.352 10.56c11.904 3.52 24.64 3.52 36.544 0a64 64 0 0 0 20.352-10.56c3.84-2.944 7.936-6.592 11.2-9.472l0.64-0.64c34.816-30.72 105.28-93.76 176-160.448 69.76-65.92 142.4-137.856 179.648-185.728 97.728-125.76 82.496-305.6-44.416-411.008-115.904-96.384-262.016-79.808-361.728 7.488z m-32.384 88.32c-72.768-85.12-188.416-104-274.304-30.592-89.728 76.672-101.824 203.584-32 293.376 32.512 41.92 100.352 109.568 170.88 176.128a7793.28 7793.28 0 0 0 167.808 153.28 7786.88 7786.88 0 0 0 167.872-153.28c70.528-66.56 138.368-134.208 170.88-176.128 70.208-90.24 59.008-217.728-31.552-292.992-88.192-73.28-202.304-54.528-274.752 30.144a42.688 42.688 0 0 1-64.832 0z" fill="#f5f5f5" p-id="1719"></path></svg>