<?xml version="1.0" standalone="no"?><!DOCTYPE svg PUBLIC "-//W3C//DTD SVG 1.1//EN" "http://www.w3.org/Graphics/SVG/1.1/DTD/svg11.dtd"><svg t="1722851591134" class="icon" viewBox="0 0 1157 1024" version="1.1" xmlns="http://www.w3.org/2000/svg" p-id="1601" xmlns:xlink="http://www.w3.org/1999/xlink" width="144.625" height="128"><path d="M897.44256 180.864a160.64 160.64 0 0 0-157.824-131.488 160.64 160.64 0 0 0-157.856 131.712C254.75456 212.064-0.98944 487.744 0.00256 823.104c0.224 70.176 58.432 126.656 128.64 126.656h610.976c17.76 0 32.16-14.4 32.16-32.16 0-35.52-28.8-64.32-64.32-64.32h-159.744l71.936-97.12c48.512-72.8 20.8-177.44-67.744-214.24-48-19.968-103.616-9.344-145.184 21.856l-65.856 49.408a32.16 32.16 0 1 1-38.656-51.424l69.888-52.448a210.56 210.56 0 0 1 251.488 0c21.856 16.384 92.192 78.496 82.016 187.328l238.208 253.12h181.632c17.76 0 32.16-14.4 32.16-32.16 0-35.52-28.8-64.32-64.32-64.32h-107.776l-198.016-210.4 310.4-174.144a117.024 117.024 0 0 0 59.712-101.952 117.44 117.44 0 0 0-61.248-102.976c-81.504-44.672-198.944-82.976-198.944-82.976z m-157.824 77.536a48.224 48.224 0 1 1 0-96.416 48.224 48.224 0 0 1 0 96.416z" fill="#6fc522" p-id="1602"></path></svg>