<?xml version="1.0" standalone="no"?><!DOCTYPE svg PUBLIC "-//W3C//DTD SVG 1.1//EN" "http://www.w3.org/Graphics/SVG/1.1/DTD/svg11.dtd"><svg t="1722830306317" class="icon" viewBox="0 0 1024 1024" version="1.1" xmlns="http://www.w3.org/2000/svg" p-id="1290" xmlns:xlink="http://www.w3.org/1999/xlink" width="200" height="200"><path d="M843.817901 126.223071H152.810829A54.051082 54.051082 0 0 1 99.419577 71.622131c0-30.077255 23.973827-54.600941 53.391252-54.600941h691.227016c29.307454 0 53.116323 24.523685 53.116323 54.600941a53.996097 53.996097 0 0 1-53.336267 54.60094zM454.628114 201.333731a52.511479 52.511479 0 0 1 27.76785-14.956149l14.40629-0.65983 12.756716 1.924504 4.89374 2.639321a47.287824 47.287824 0 0 1 15.890908 11.052154l314.519014 323.866608c20.344761 21.224535 20.454733 55.865615 0.054986 76.870206a52.89638 52.89638 0 0 1-37.995216 16.110852 51.96162 51.96162 0 0 1-37.775274-16.110852L546.069569 372.119755v580.540517a54.106068 54.106068 0 0 1-53.446239 54.545955 53.996097 53.996097 0 0 1-53.336266-54.545955V372.229727L216.319476 602.290489c-8.687763 8.907706-22.489209 14.516262-39.644792 16.00088a51.96162 51.96162 0 0 1-36.070712-16.00088 55.700658 55.700658 0 0 1 0-76.815221l314.024142-324.141537z" fill="#666666" p-id="1291"></path></svg>